<?xml version="1.0"?>
<svg xmlns="http://www.w3.org/2000/svg" xmlns:xlink="http://www.w3.org/1999/xlink" xmlns:svgjs="http://svgjs.com/svgjs" version="1.1" width="512" height="512" x="0" y="0" viewBox="0 0 64 64" style="enable-background:new 0 0 512 512" xml:space="preserve"><g><g xmlns="http://www.w3.org/2000/svg" id="Layer_2" data-name="Layer 2"><g fill="#c4a2fc"><path d="m55.5 19.08v31.991a7.011 7.011 0 0 1 6 6.929v-32a7 7 0 0 0 -6-6.92z" fill="#c4a2fc" data-original="#c4a2fc" style=""/><path d="m16.5 30h8v8h-8z" fill="#c4a2fc" data-original="#c4a2fc" style=""/><path d="m40.5 50h8v8h-8z" fill="#c4a2fc" data-original="#c4a2fc" style=""/><path d="m25.5 50h8v8h-8z" fill="#c4a2fc" data-original="#c4a2fc" style=""/><path d="m54.524 53a1 1 0 0 1 -1.024-.979v-27.021h-39a3 3 0 0 0 -3 3v32a3 3 0 0 0 3 3h39.784a5.144 5.144 0 0 0 5.206-4.674 5.006 5.006 0 0 0 -4.966-5.326zm-25.024-22h2a1 1 0 0 1 0 2h-2a1 1 0 0 1 0-2zm0 4h2a1 1 0 0 1 0 2h-2a1 1 0 0 1 0-2zm21 24a1 1 0 0 1 -1 1h-10a1 1 0 0 1 -1-1v-10a1 1 0 0 1 1-1h4v-3h-13v3h4a1 1 0 0 1 1 1v10a1 1 0 0 1 -1 1h-10a1 1 0 0 1 -1-1v-10a1 1 0 0 1 1-1h4v-3h-8a1 1 0 0 1 -1-1v-4h-4a1 1 0 0 1 -1-1v-10a1 1 0 0 1 1-1h10a1 1 0 0 1 1 1v10a1 1 0 0 1 -1 1h-4v3h23a1 1 0 0 1 1 1v4h4a1 1 0 0 1 1 1zm-1-22h-14a1 1 0 0 1 0-2h14a1 1 0 0 1 0 2zm0-4h-14a1 1 0 0 1 0-2h14a1 1 0 0 1 0 2z" fill="#c4a2fc" data-original="#c4a2fc" style=""/></g><path d="m29.5 1h-24a3 3 0 0 0 -3 3v45a3 3 0 0 0 3 3h24a3 3 0 0 0 3-3v-45a3 3 0 0 0 -3-3zm-24 2h24a1 1 0 0 1 1 1v2h-26v-2a1 1 0 0 1 1-1zm24 47h-24a1 1 0 0 1 -1-1v-41h26v41a1 1 0 0 1 -1 1z" fill="#151a6a" data-original="#151a6a" style=""/><path d="m20.5 45h-6a1 1 0 0 0 0 2h6a1 1 0 0 0 0-2z" fill="#151a6a" data-original="#151a6a" style=""/><path d="m23.978 20.766a1 1 0 0 0 -1.713 1.034l3.073 5.1-3.082 5.32a1 1 0 1 0 1.731 1l3.378-5.832a1 1 0 0 0 -.009-1.017z" fill="#151a6a" data-original="#151a6a" style=""/><path d="m9.662 26.9 3.073-5.1a1 1 0 0 0 -1.713-1.032l-3.378 5.6a1 1 0 0 0 -.009 1.017l3.378 5.832a1 1 0 0 0 1.731-1z" fill="#151a6a" data-original="#151a6a" style=""/><path d="m14.856 33.647a1 1 0 0 0 1.3-.56l4.544-11.435a1 1 0 1 0 -1.858-.739l-4.542 11.435a1 1 0 0 0 .556 1.299z" fill="#151a6a" data-original="#151a6a" style=""/></g></g></svg>
