<?xml version="1.0"?>
<svg xmlns="http://www.w3.org/2000/svg" xmlns:xlink="http://www.w3.org/1999/xlink" xmlns:svgjs="http://svgjs.com/svgjs" version="1.1" width="512" height="512" x="0" y="0" viewBox="0 0 24 24" style="enable-background:new 0 0 512 512" xml:space="preserve" class=""><g><path xmlns="http://www.w3.org/2000/svg" d="m12 0c-6.627 0-12 5.373-12 12s5.373 12 12 12c6.628 0 12-5.373 12-12s-5.373-12-12-12z" fill="#ffffff" data-original="#2196f3" style="" class=""/><path xmlns="http://www.w3.org/2000/svg" d="m16.924 10.383c-.155.373-.52.617-.924.617h-3v7c0 .552-.448 1-1 1s-1-.448-1-1v-7h-3c-.404 0-.769-.244-.924-.617-.155-.374-.069-.804.217-1.09l4-4c.391-.391 1.023-.391 1.414 0l4 4c.286.286.372.716.217 1.09z" fill="#216192" data-original="#fafafa" style="" class=""/><path xmlns="http://www.w3.org/2000/svg" d="m12 0c-6.627 0-12 5.373-12 12s5.373 12 12 12v-5c-.552 0-1-.448-1-1v-7h-3c-.404 0-.769-.244-.924-.617-.155-.374-.069-.804.217-1.09l4-4c.195-.195.451-.293.707-.293z" fill="#ffffff" data-original="#1d83d4" style="" class=""/><path xmlns="http://www.w3.org/2000/svg" d="m12 5c-.256 0-.512.098-.707.293l-4 4c-.286.286-.372.716-.217 1.09.155.373.52.617.924.617h3v7c0 .552.448 1 1 1z" fill="#216192" data-original="#dadada" style="" class=""/></g></svg>
